<?xml version="1.0" encoding="iso-8859-1"?>
<!-- Generator: Adobe Illustrator 18.0.0, SVG Export Plug-In . SVG Version: 6.00 Build 0)  -->
<!DOCTYPE svg PUBLIC "-//W3C//DTD SVG 1.1//EN" "http://www.w3.org/Graphics/SVG/1.1/DTD/svg11.dtd">
<svg version="1.1" id="Capa_1" xmlns="http://www.w3.org/2000/svg" xmlns:xlink="http://www.w3.org/1999/xlink" x="0px" y="0px"
	 viewBox="0 0 312.553 312.553" style="enable-background:new 0 0 312.553 312.553;" xml:space="preserve">
<g>
	<path d="M227.064,125.6h-8.837v33.887h8.837c21.234,0,21.234-12.97,21.234-17.232C248.299,138.136,248.299,125.6,227.064,125.6z"/>
	<path d="M302.553,0H10C4.477,0,0,4.478,0,10v292.553c0,5.522,4.477,10,10,10h292.553c5.523,0,10-4.478,10-10V10
		C312.553,4.478,308.076,0,302.553,0z M99.961,172.089c0,18.246-10.238,29.581-26.721,29.581c-10.342,0-19.578-5.183-26.008-14.593
		c-2.905-4.252-1.813-10.053,2.438-12.958c4.25-2.904,10.053-1.813,12.958,2.438c2.932,4.29,6.502,6.466,10.611,6.466
		c3.215,0,8.074,0,8.074-10.935v-45.843H56.836c-5.149,0-9.323-4.174-9.323-9.323c0-5.149,4.174-9.323,9.323-9.323h33.802
		c5.149,0,9.323,4.174,9.323,9.323V172.089z M150.105,203.312c-12.213,0-24.675-5.151-32.522-13.444
		c-3.54-3.739-3.377-9.641,0.363-13.18c3.739-3.54,9.642-3.376,13.18,0.363c4.311,4.554,11.938,7.614,18.98,7.614
		c7.156,0,15.513-2.055,15.513-7.845c0.045-5.542-2.769-7.503-16.728-11.73c-12.391-3.753-31.114-9.423-31.114-31.073
		c0-16.188,14.004-27.063,34.847-27.063c9.255,0,19.351,2.809,26.347,7.329c4.325,2.795,5.566,8.566,2.771,12.891
		c-2.795,4.325-8.567,5.566-12.891,2.771c-3.959-2.558-10.632-4.345-16.227-4.345c-7.473,0-16.2,2.204-16.2,8.417
		c0,6.788,4.026,9.033,17.872,13.227c12.002,3.635,30.14,9.128,29.97,29.654C184.264,190.007,173.701,203.312,150.105,203.312z
		 M227.064,178.133h-8.837v18.144c0,5.149-4.174,9.323-9.323,9.323s-9.323-4.174-9.323-9.323v-80c0-5.149,4.174-9.323,9.323-9.323
		h18.16c24.6,0,39.881,13.526,39.881,35.302C266.945,164.386,251.664,178.133,227.064,178.133z"/>
</g>
<g>
</g>
<g>
</g>
<g>
</g>
<g>
</g>
<g>
</g>
<g>
</g>
<g>
</g>
<g>
</g>
<g>
</g>
<g>
</g>
<g>
</g>
<g>
</g>
<g>
</g>
<g>
</g>
<g>
</g>
</svg>
