<?xml version="1.0" encoding="iso-8859-1"?>
<!-- Generator: Adobe Illustrator 19.0.0, SVG Export Plug-In . SVG Version: 6.00 Build 0)  -->
<svg version="1.1" id="Layer_1" xmlns="http://www.w3.org/2000/svg" xmlns:xlink="http://www.w3.org/1999/xlink" x="0px" y="0px"
	 viewBox="0 0 512 512" style="enable-background:new 0 0 512 512;" xml:space="preserve">
<g>
	<g>
		<path d="M503.83,0H8.17C3.657,0,0,3.657,0,8.17v495.66c0,4.513,3.657,8.17,8.17,8.17h495.66c4.513,0,8.17-3.657,8.17-8.17V8.17
			C512,3.657,508.343,0,503.83,0z M495.66,495.66H16.34V16.34H495.66V495.66z"/>
	</g>
</g>
<g>
	<g>
		<path d="M471.149,32.681H40.851c-4.513,0-8.17,3.657-8.17,8.17v32.681c0,4.513,3.657,8.17,8.17,8.17h430.298
			c4.513,0,8.17-3.657,8.17-8.17V40.851C479.319,36.338,475.662,32.681,471.149,32.681z M462.979,65.362H49.021v-16.34h413.957
			V65.362z"/>
	</g>
</g>
<g>
	<g>
		<path d="M471.149,350.412H40.851c-4.513,0-8.17,3.657-8.17,8.17v112.567c0,4.513,3.657,8.17,8.17,8.17h430.298
			c4.513,0,8.17-3.657,8.17-8.17V358.582C479.319,354.069,475.662,350.412,471.149,350.412z M462.979,462.979H49.021v-96.227
			h413.957V462.979z"/>
	</g>
</g>
<g>
	<g>
		<path d="M316.822,98.043H195.178c-4.513,0-8.17,3.657-8.17,8.17v121.646c0,4.513,3.657,8.17,8.17,8.17h121.645
			c4.513,0,8.17-3.657,8.17-8.17V106.213C324.993,101.7,321.336,98.043,316.822,98.043z M297.096,114.383L256,155.48l-41.097-41.097
			H297.096z M203.348,125.938l41.097,41.097l-41.097,41.097V125.938z M214.904,219.688L256,178.591l41.097,41.097H214.904z
			 M308.652,208.132l-41.097-41.097l41.097-41.097V208.132z"/>
	</g>
</g>
<g>
	<g>
		<path d="M471.149,98.043H349.503c-4.513,0-8.17,3.657-8.17,8.17v121.646c0,4.513,3.657,8.17,8.17,8.17h121.646
			c4.513,0,8.17-3.657,8.17-8.17V106.213C479.319,101.7,475.662,98.043,471.149,98.043z M451.423,114.383l-41.097,41.097
			l-41.097-41.097H451.423z M357.673,125.938l41.097,41.097l-41.097,41.097V125.938z M369.228,219.688l41.098-41.097l41.097,41.097
			H369.228z M462.979,208.132l-41.097-41.097l41.097-41.097V208.132z"/>
	</g>
</g>
<g>
	<g>
		<path d="M316.822,252.369H195.178c-4.513,0-8.17,3.657-8.17,8.17c0,4.513,3.657,8.17,8.17,8.17h121.645
			c4.513,0,8.17-3.657,8.17-8.17C324.993,256.026,321.336,252.369,316.822,252.369z"/>
	</g>
</g>
<g>
	<g>
		<path d="M471.149,252.369H349.503c-4.513,0-8.17,3.657-8.17,8.17c0,4.513,3.657,8.17,8.17,8.17h121.646
			c4.513,0,8.17-3.657,8.17-8.17C479.319,256.026,475.662,252.369,471.149,252.369z"/>
	</g>
</g>
<g>
	<g>
		<path d="M162.497,252.369H40.851c-4.513,0-8.17,3.657-8.17,8.17c0,4.513,3.657,8.17,8.17,8.17h121.646
			c4.513,0,8.17-3.657,8.17-8.17C170.667,256.026,167.01,252.369,162.497,252.369z"/>
	</g>
</g>
<g>
	<g>
		<path d="M316.822,285.05H195.178c-4.513,0-8.17,3.657-8.17,8.17s3.657,8.17,8.17,8.17h121.645c4.513,0,8.17-3.657,8.17-8.17
			S321.336,285.05,316.822,285.05z"/>
	</g>
</g>
<g>
	<g>
		<path d="M471.149,285.05H349.503c-4.513,0-8.17,3.657-8.17,8.17s3.657,8.17,8.17,8.17h121.646c4.513,0,8.17-3.657,8.17-8.17
			S475.662,285.05,471.149,285.05z"/>
	</g>
</g>
<g>
	<g>
		<path d="M162.497,285.05H40.851c-4.513,0-8.17,3.657-8.17,8.17s3.657,8.17,8.17,8.17h121.646c4.513,0,8.17-3.657,8.17-8.17
			S167.01,285.05,162.497,285.05z"/>
	</g>
</g>
<g>
	<g>
		<path d="M256.182,317.731h-61.004c-4.513,0-8.17,3.657-8.17,8.17s3.657,8.17,8.17,8.17h61.004c4.513,0,8.17-3.657,8.17-8.17
			S260.695,317.731,256.182,317.731z"/>
	</g>
</g>
<g>
	<g>
		<path d="M410.507,317.731h-61.004c-4.513,0-8.17,3.657-8.17,8.17s3.657,8.17,8.17,8.17h61.004c4.513,0,8.17-3.657,8.17-8.17
			S415.021,317.731,410.507,317.731z"/>
	</g>
</g>
<g>
	<g>
		<path d="M101.855,317.731H40.851c-4.513,0-8.17,3.657-8.17,8.17s3.657,8.17,8.17,8.17h61.004c4.513,0,8.17-3.657,8.17-8.17
			S106.369,317.731,101.855,317.731z"/>
	</g>
</g>
<g>
	<g>
		<path d="M162.497,98.043H40.851c-4.513,0-8.17,3.657-8.17,8.17v121.646c0,4.513,3.657,8.17,8.17,8.17h121.646
			c4.513,0,8.17-3.657,8.17-8.17V106.213C170.667,101.7,167.01,98.043,162.497,98.043z M142.771,114.383l-41.097,41.097
			l-41.097-41.097H142.771z M49.021,125.939l41.097,41.096l-41.097,41.098V125.939z M60.576,219.688l41.097-41.097l41.098,41.097
			H60.576z M154.327,208.132l-41.097-41.097l41.097-41.097V208.132z"/>
	</g>
</g>
<g>
</g>
<g>
</g>
<g>
</g>
<g>
</g>
<g>
</g>
<g>
</g>
<g>
</g>
<g>
</g>
<g>
</g>
<g>
</g>
<g>
</g>
<g>
</g>
<g>
</g>
<g>
</g>
<g>
</g>
</svg>
